<svg width="42" height="42" viewBox="0 0 42 42" fill="none" xmlns="http://www.w3.org/2000/svg">
<path fill-rule="evenodd" clip-rule="evenodd" d="M11.4602 32.7672H30.5398L21 12.5835L11.4602 32.7672ZM1 35.1661L17.1486 1H24.8514L41 35.1661L37.1486 41H4.85141L1 35.1661Z" fill="url(#paint0_linear_197402_503)"/>
<path fill-rule="evenodd" clip-rule="evenodd" d="M11.4602 32.7672H30.5398L21 12.5835L11.4602 32.7672ZM1 35.1661L17.1486 1H24.8514L41 35.1661L37.1486 41H4.85141L1 35.1661Z" stroke="black" stroke-linejoin="bevel"/>
<path fill-rule="evenodd" clip-rule="evenodd" d="M11.4602 32.7672H30.5398L21 12.5835L11.4602 32.7672ZM1 35.1661L17.1486 1H24.8514L41 35.1661L37.1486 41H4.85141L1 35.1661Z" stroke="black" stroke-opacity="0.2" stroke-linejoin="bevel"/>
<defs>
<linearGradient id="paint0_linear_197402_503" x1="21" y1="1" x2="21" y2="41" gradientUnits="userSpaceOnUse">
<stop offset="0.677083" stop-color="#FD8325"/>
<stop offset="1" stop-color="#FC6621"/>
</linearGradient>
</defs>
</svg>
